HIERARCHY
ROOT Hips
{
  OFFSET 0 0 0
  CHANNELS 6 Xposition Yposition Zposition Zrotation Yrotation Xrotation
  JOINT LeftThigh
  {
    OFFSET 8.409438 0 -5.917753
    CHANNELS 3 Zrotation Yrotation Xrotation
    JOINT LeftLeg
    {
      OFFSET 0 0 -42.358652
      CHANNELS 3 Zrotation Yrotation Xrotation
      JOINT LeftFoot
      {
        OFFSET 0 0 -39.357303
        CHANNELS 3 Zrotation Yrotation Xrotation
      }
    }
  }
  JOINT RightThigh
  {
    OFFSET -8.409438 0 -5.917753
    CHANNELS 3 Zrotation Yrotation Xrotation
    JOINT RightLeg
    {
      OFFSET 0 0 -42.358652
      CHANNELS 3 Zrotation Yrotation Xrotation
      JOINT RightFoot
      {
        OFFSET 0 0 -39.357303
        CHANNELS 3 Zrotation Yrotation Xrotation
      }
    }
  }
  JOINT SpineLow
  {
    OFFSET 0 0 4.719101
    CHANNELS 3 Zrotation Yrotation Xrotation
    JOINT SpineMid
    {
      OFFSET 0 0 12.899191
      CHANNELS 3 Zrotation Yrotation Xrotation
      JOINT Chest
      {
        OFFSET 0 0 12.899191
        CHANNELS 3 Zrotation Yrotation Xrotation
        JOINT LeftShoulder
        {
          OFFSET 7.550562 1.41573 9.438202
          CHANNELS 3 Zrotation Yrotation Xrotation
          JOINT LeftArm
          {
            OFFSET 9.155056 0 4.247191
            CHANNELS 3 Zrotation Yrotation Xrotation
            JOINT LeftForearm
            {
              OFFSET 0 0 25.771955
              CHANNELS 3 Zrotation Yrotation Xrotation
              JOINT LeftHand
              {
                OFFSET 0 0 25.197169
                CHANNELS 3 Zrotation Yrotation Xrotation
              }
            }
          }
        }
        JOINT RightShoulder
        {
          OFFSET -7.550562 1.41573 9.438202
          CHANNELS 3 Zrotation Yrotation Xrotation
          JOINT RightArm
          {
            OFFSET -9.155056 0 4.247191
            CHANNELS 3 Zrotation Yrotation Xrotation
            JOINT RightForearm
            {
              OFFSET 0 0 -25.771955
              CHANNELS 3 Zrotation Yrotation Xrotation
              JOINT RightHand
              {
                OFFSET 0 0 -25.197169
                CHANNELS 3 Zrotation Yrotation Xrotation
              }
            }
          }
        }
        JOINT Neck
        {
          OFFSET 0 0 15.101124
          CHANNELS 3 Zrotation Yrotation Xrotation
          JOINT Head
          {
            OFFSET 0 0 11.325843
            CHANNELS 3 Zrotation Yrotation Xrotation
            End Site
            {
              OFFSET 0 0 14.157303
            }
          }
        }
      }
    }
  }
}
MOTION
Frames: 16
Frame Time: 0.0
0.0  89.887642  0.0  1.262386  -13.565997  -97.449073  6.109568  -17.743117  -4.34635  -9.461137  15.854963  28.521442  2.414456  1.965594  2.436588  -24.039689  15.266213  -18.85856  -8.79558  8.283316  27.447825  11.071715  3.038341  -0.738153  0.563698  -0.071918  1.550453  1.53548  -0.2326  4.236082  1.53548  -0.2326  4.236083  -15.90647  21.646502  1.319591  163.359032  54.609479  -157.595642  -4.915583  -7.035741  30.062536  94.175718  6.045097  -5.215308  -18.863665  -0.984647  15.750434  54.644813  18.912102  41.451622  28.291853  -34.715063  -104.271223  76.322683  -10.080177  -12.371177  -8.78625  0.397344  -2.433894  -6.588203  0.333091  -1.820146  
0.0  89.887642  0.0  1.186069  -13.773274  -97.398977  6.37926  -17.690892  -3.97287  -9.55513  15.185753  27.926436  2.369868  1.954153  2.434611  -23.930518  15.107477  -18.446233  -9.05487  8.245016  26.638703  11.048888  2.940532  -0.706267  0.547303  -0.077098  1.525019  1.490459  -0.24513  4.166513  1.490459  -0.24513  4.166514  -15.676924  21.397779  1.233122  163.195368  53.977303  -158.11683  -5.581167  -7.446515  31.605643  94.27933  5.987989  -5.147231  -18.642859  -1.371021  15.462252  55.313541  19.678737  41.3223  26.908915  -34.618298  -102.929113  77.592664  -10.98641  -12.087261  -8.715306  0.399299  -2.338964  -6.535039  0.332919  -1.748943  
0.0  89.887642  0.0  1.130256  -13.868757  -97.310782  6.47163  -17.509066  -3.643102  -9.642529  14.509622  27.305039  2.286655  1.874233  2.366514  -23.845207  14.986869  -18.072055  -9.276034  8.218035  25.888932  10.898531  2.786016  -0.69428  0.489348  -0.068886  1.4852  1.33278  -0.218245  4.058073  1.33278  -0.218245  4.058073  -15.373551  21.069865  1.194745  162.958132  53.298254  -158.560262  -6.496698  -7.828479  33.150772  94.386277  6.026149  -5.186354  -18.043565  -1.797168  15.272511  55.605969  20.502306  40.982233  24.725735  -34.111712  -100.988789  78.66551  -12.004227  -12.49866  -8.503775  0.390174  -2.199582  -6.376501  0.323319  -1.644628  
0.0  89.887642  0.0  1.020836  -14.143555  -97.234247  6.642211  -17.426833  -3.246916  -9.651359  13.760754  26.676927  2.274697  1.872376  2.318574  -23.731555  14.792169  -17.720719  -9.701973  8.232866  25.121353  10.929048  2.690467  -0.657153  0.481878  -0.075526  1.455008  1.31208  -0.235329  3.975447  1.31208  -0.235329  3.975447  -15.247034  20.825313  1.136218  162.867066  52.630299  -159.055717  -7.516431  -8.228012  34.795686  94.430613  5.865715  -5.167267  -17.786839  -2.241919  14.958815  56.391093  21.353562  40.889584  21.893025  -33.390615  -98.661739  79.551695  -12.979797  -13.403926  -8.420286  0.382303  -2.122015  -6.313954  0.316043  -1.586594  
0.0  89.887642  0.0  0.965242  -14.35639  -97.1426  6.671616  -17.202583  -2.846894  -9.395941  12.947544  26.17662  2.072754  1.741524  2.155985  -23.628653  14.663123  -17.460759  -10.155785  8.257233  24.432599  10.868761  2.555103  -0.626125  0.451741  -0.074175  1.418411  1.229956  -0.229149  3.875559  1.229956  -0.229149  3.875559  -15.055194  20.60369  1.146953  162.634894  51.996461  -159.399059  -8.650915  -8.542062  36.477226  94.383383  5.899897  -5.215915  -17.385353  -2.655645  14.781551  56.723974  22.367242  40.430281  19.104099  -31.778865  -95.740414  79.842299  -13.370725  -14.337777  -8.211604  0.388319  -2.003642  -6.157486  0.318236  -1.497828  
0.0  89.887642  0.0  0.863413  -14.753699  -96.978909  6.785382  -17.06132  -2.464389  -9.140499  12.094433  25.57774  2.022476  1.730594  2.042587  -23.430888  14.409331  -17.312278  -10.727936  8.342309  23.796274  10.953104  2.47847  -0.586734  0.453494  -0.081756  1.373135  1.234486  -0.249122  3.751658  1.234486  -0.249122  3.751658  -14.897948  20.370722  1.119546  162.556463  51.277044  -159.790087  -9.810235  -8.834209  38.132818  94.283659  5.680998  -5.120084  -17.02594  -2.995471  14.67826  57.508201  23.4293  40.157137  16.391417  -30.403749  -93.378368  80.61745  -13.949995  -15.001026  -8.081906  0.384727  -1.937673  -6.060259  0.31424  -1.448462  
0.0  89.887642  0.0  0.771913  -14.925107  -96.657766  6.5366  -16.799742  -2.252253  -8.811612  11.160509  24.946605  1.962619  1.797786  1.931174  -23.535007  14.082436  -17.374427  -11.25592  8.473707  23.194071  11.051221  2.428932  -0.553132  0.405955  -0.087077  1.301638  1.104588  -0.259772  3.556338  1.104588  -0.259772  3.556338  -14.623566  20.144502  1.094964  162.250425  50.584846  -160.165869  -10.938424  -9.026613  39.774791  94.058032  5.658471  -5.005704  -16.536127  -3.277915  14.652725  57.957849  24.523259  39.650648  14.452704  -29.213434  -91.019767  81.899907  -13.948996  -14.965345  -7.826195  0.395847  -1.829858  -5.8685  0.320385  -1.367584  
0.0  89.887642  0.0  0.691312  -15.440259  -96.472836  6.560944  -16.586917  -1.85308  -8.39817  10.251498  24.341867  1.859204  1.765661  1.778686  -23.111202  13.773004  -17.27385  -11.864165  8.593383  22.645425  11.116589  2.408646  -0.537618  0.428782  -0.089188  1.253623  1.167055  -0.265922  3.424964  1.167055  -0.265922  3.424964  -14.511439  19.871366  1.044422  162.148546  49.868441  -160.576772  -11.981886  -9.116255  41.397489  93.858658  5.468792  -4.727392  -16.241293  -3.558749  14.601413  58.728237  25.569057  39.343925  12.520335  -28.055552  -88.750399  83.657519  -14.061036  -14.869507  -7.689739  0.37538  -1.775506  -5.766251  0.303937  -1.32715  
0.0  89.887642  0.0  0.628447  -15.864147  -96.298677  6.427756  -16.333941  -1.42709  -8.063291  9.303208  23.669454  1.882787  1.853279  1.657989  -22.62474  13.470866  -17.142801  -12.488998  8.764089  22.074489  11.138897  2.262307  -0.489935  0.431094  -0.09492  1.206376  1.173288  -0.28087  3.295713  1.173288  -0.28087  3.295714  -14.346481  19.669293  1.045276  161.947128  49.281047  -160.939517  -12.930044  -9.085414  42.961377  93.601927  5.373217  -4.410852  -15.830282  -3.821063  14.592131  59.321995  26.648935  38.970838  10.487757  -26.477567  -86.326415  85.446777  -14.125752  -14.983445  -7.48797  0.386132  -1.705928  -5.614931  0.310561  -1.274937  
0.0  89.887642  0.0  0.525917  -16.393579  -96.17336  6.330172  -16.132827  -0.939619  -7.603244  8.444052  23.075099  1.854045  1.798061  1.541818  -22.068674  13.153176  -16.932892  -13.027565  8.83576  21.456858  11.090843  2.095524  -0.392903  0.441564  -0.110406  1.166758  1.20133  -0.322989  3.187101  1.20133  -0.322989  3.1871  -14.152548  19.532698  1.091992  161.874551  48.723036  -161.255339  -13.726371  -9.029988  44.458973  93.340154  5.226124  -3.964159  -15.483851  -3.994001  14.664117  60.053726  27.792562  38.570559  8.503919  -24.576463  -83.892809  86.939761  -14.166541  -15.251212  -7.281631  0.413817  -1.656602  -5.460126  0.330161  -1.237723  
0.0  89.887642  0.0  0.370541  -16.816323  -96.035481  5.828736  -15.969556  -0.602256  -7.241309  7.657611  22.512943  2.27229  1.862899  1.677224  -21.323081  12.926678  -16.596928  -12.822145  8.43139  21.336881  9.883339  1.970547  -0.60842  0.45161  -0.128566  1.136194  1.22809  -0.372533  3.103176  1.22809  -0.372533  3.103176  -14.028988  19.382793  1.151822  161.561079  48.282216  -161.532974  -14.42329  -8.971081  45.752223  93.028478  5.1574  -3.47672  -15.288062  -4.176924  14.720666  60.729011  28.954519  38.126131  7.034932  -22.538996  -81.585346  88.186929  -14.138007  -15.542889  -7.110149  0.418897  -1.623843  -5.33152  0.333122  -1.213197  
0.0  89.887642  0.0  0.192248  -17.255801  -95.907213  5.458063  -15.847925  -0.206336  -6.71427  6.94651  22.080606  2.36066  1.733549  1.673122  -21.05679  12.571867  -16.359462  -13.621673  8.376061  20.76288  9.591485  2.03991  -0.617668  0.458505  -0.148271  1.102229  1.246238  -0.426062  3.009935  1.246238  -0.426062  3.009935  -13.945205  19.282795  1.248596  161.481132  47.847452  -161.806822  -14.8835  -8.891339  47.044937  92.761741  5.121782  -2.895111  -15.108636  -4.35232  14.797234  61.632027  30.060538  37.820198  5.705816  -20.76022  -79.439505  89.451064  -14.038853  -15.89097  -6.918662  0.423965  -1.572112  -5.187923  0.335826  -1.174457  
0.0  89.887642  0.0  -0.011396  -17.681832  -95.775282  4.752287  -15.76641  -0.002379  -6.011373  6.358297  21.863588  2.470128  1.640937  1.692413  -21.07212  12.094086  -16.009644  -14.373801  8.498491  19.985131  9.494492  2.023306  -0.684621  0.452738  -0.177186  1.061331  1.229487  -0.504059  2.89766  1.229487  -0.504059  2.89766  -13.762624  19.200496  1.391494  161.256513  47.412002  -162.085099  -15.235291  -8.855932  48.145226  92.496735  5.12335  -2.24514  -14.792458  -4.475481  14.956379  62.551938  31.163509  37.505337  4.79033  -19.091467  -77.358564  90.575144  -13.763497  -16.061709  -6.677954  0.453411  -1.480148  -5.007376  0.356285  -1.105307  
0.0  89.887642  0.0  -0.176594  -18.036446  -95.596593  4.259975  -15.589593  0.241246  -5.487737  5.760048  21.579437  2.529505  1.48955  1.702779  -21.425407  11.557635  -15.641016  -15.016063  8.667144  18.969312  9.76345  1.972195  -0.71158  0.431416  -0.196393  1.017244  1.170758  -0.554836  2.77699  1.170758  -0.554836  2.77699  -13.577632  19.049462  1.452806  161.09299  46.89742  -162.395593  -15.360541  -8.844251  49.207717  92.240449  5.172743  -1.551024  -14.461488  -4.673156  15.031584  63.566682  32.277268  37.259976  3.916524  -17.553892  -75.276369  91.751989  -13.401197  -16.180452  -6.415705  0.46603  -1.400643  -4.810714  0.364276  -1.04572  
0.0  89.887642  0.0  -0.333672  -18.296873  -95.360336  3.773762  -15.449429  0.355219  -4.887846  5.243671  21.464158  2.455156  1.349729  1.648972  -21.917624  11.000191  -15.294824  -15.286879  8.696213  17.912477  10.125658  1.97185  -0.775864  0.398395  -0.219072  0.963567  1.080074  -0.614556  2.630193  1.080074  -0.614556  2.630193  -13.421069  18.915395  1.480925  160.842117  46.373825  -162.70199  -15.356806  -8.892861  50.078003  92.020559  5.226303  -0.838896  -14.142267  -4.85751  15.068311  64.729613  33.369411  37.126905  3.283653  -15.905151  -73.197396  92.876038  -12.895331  -16.088892  -6.167502  0.495809  -1.304645  -4.624565  0.385072  -0.973591  
0.0  89.887642  0.0  -0.419704  -18.48839  -95.113967  3.350798  -15.216955  0.398323  -4.40882  4.736441  21.293815  2.347554  1.226047  1.62157  -22.402497  10.549022  -15.033595  -14.938483  8.571077  16.912751  10.290679  1.886107  -0.81703  0.360663  -0.231785  0.903165  0.977052  -0.646911  2.465262  0.977052  -0.646911  2.465262  -13.318344  18.786252  1.471189  160.620434  45.82373  -163.029653  -15.168486  -8.971929  50.850398  91.877664  5.274782  -0.192823  -13.8886  -5.091974  15.131432  66.008081  34.516171  37.1188  2.608853  -14.098907  -71.104134  94.125086  -12.268254  -15.971709  -5.933498  0.529724  -1.19747  -4.449075  0.408967  -0.893053  
